<svg width="69" height="63" viewBox="0 0 69 63" fill="none" xmlns="http://www.w3.org/2000/svg">
<g filter="url(#filter0_d_9_483)">
<rect x="6" y="2" width="57" height="51" rx="10" fill="black"/>
</g>
<path d="M30.8 41.64H24.4V16.32H36.48C39.6533 16.32 41.96 17.04 43.4 18.48C44.8667 19.8933 45.6 21.9867 45.6 24.76C45.6 26.84 45.08 28.6267 44.04 30.12C43 31.5867 41.6267 32.5067 39.92 32.88L39.88 33C40.5467 33.4267 41.28 34.1333 42.08 35.12C42.88 36.1067 43.6667 37.1867 44.44 38.36C45.24 39.5067 45.9467 40.5867 46.56 41.6V41.64H39.12L34.8 35.24C34.4267 34.68 34.12 34.28 33.88 34.04C33.6667 33.8 33.4 33.6533 33.08 33.6C32.7867 33.5467 32.3067 33.52 31.64 33.52H30.8V41.64ZM35.44 21.52H30.8V28.32H35.44C36.7733 28.32 37.6933 28.0533 38.2 27.52C38.7333 26.9867 39 26.12 39 24.92C39 23.72 38.7333 22.8533 38.2 22.32C37.6933 21.7867 36.7733 21.52 35.44 21.52Z" fill="white"/>
<defs>
<filter id="filter0_d_9_483" x="0" y="0" width="69" height="63" filterUnits="userSpaceOnUse" color-interpolation-filters="sRGB">
<feFlood flood-opacity="0" result="BackgroundImageFix"/>
<feColorMatrix in="SourceAlpha" type="matrix" values="0 0 0 0 0 0 0 0 0 0 0 0 0 0 0 0 0 0 127 0" result="hardAlpha"/>
<feMorphology radius="2" operator="dilate" in="SourceAlpha" result="effect1_dropShadow_9_483"/>
<feOffset dy="4"/>
<feGaussianBlur stdDeviation="2"/>
<feComposite in2="hardAlpha" operator="out"/>
<feColorMatrix type="matrix" values="0 0 0 0 0 0 0 0 0 0 0 0 0 0 0 0 0 0 0.25 0"/>
<feBlend mode="normal" in2="BackgroundImageFix" result="effect1_dropShadow_9_483"/>
<feBlend mode="normal" in="SourceGraphic" in2="effect1_dropShadow_9_483" result="shape"/>
</filter>
</defs>
</svg>
